<svg
 xmlns="http://www.w3.org/2000/svg"
 xmlns:xlink="http://www.w3.org/1999/xlink"
 width="58px" height="57px">
<path fill-rule="evenodd"  fill="rgb(33, 94, 171)"
 d="M27.468,37.233 L16.738,28.037 L19.955,24.284 L29.243,32.246 L53.052,7.281 L56.629,10.691 L29.483,39.156 L27.468,37.233 ZM18.340,8.253 C13.427,10.793 9.582,15.004 7.499,20.129 C5.417,25.253 5.233,30.952 6.980,36.200 C8.728,41.448 12.293,45.899 17.032,48.751 C21.772,51.603 27.374,52.668 32.829,51.755 C38.284,50.841 43.234,48.010 46.786,43.770 C50.338,39.530 52.259,34.161 52.203,28.630 L57.145,28.579 C57.213,35.288 54.883,41.801 50.575,46.944 C46.266,52.087 40.262,55.522 33.645,56.629 C27.028,57.737 20.233,56.445 14.484,52.986 C8.735,49.526 4.411,44.127 2.291,37.762 C0.171,31.396 0.395,24.483 2.921,18.268 C5.447,12.052 10.110,6.943 16.070,3.862 C22.030,0.781 28.895,-0.070 35.427,1.462 L34.298,6.274 C28.913,5.011 23.254,5.712 18.340,8.253 Z"/>
</svg>