<svg
 xmlns="http://www.w3.org/2000/svg"
 xmlns:xlink="http://www.w3.org/1999/xlink"
 width="54px" height="71px">
<path fill-rule="evenodd"  fill="rgb(228, 32, 114)"
 d="M27.849,70.292 C27.158,70.617 26.357,70.617 25.666,70.292 C8.550,62.211 0.182,47.531 0.183,28.603 L0.183,11.645 C0.176,10.291 1.243,9.175 2.596,9.121 C6.585,8.967 17.626,7.942 25.062,1.397 C26.027,0.533 27.488,0.533 28.453,1.397 C35.889,7.938 46.930,8.963 50.918,9.121 L50.919,9.121 C52.272,9.175 53.339,10.291 53.332,11.645 L53.332,28.603 C53.295,47.520 44.939,62.181 27.849,70.292 ZM50.800,11.651 C46.579,11.483 34.830,10.380 26.780,3.294 C18.674,10.385 6.897,11.485 2.698,11.651 L2.715,28.603 C2.713,46.550 10.515,60.338 26.744,68.001 C42.962,60.321 50.765,46.548 50.800,28.603 L50.800,11.651 ZM27.977,64.421 C27.214,64.828 26.299,64.828 25.537,64.421 C11.466,56.758 5.255,44.570 5.248,28.548 L5.248,16.333 C5.251,15.038 6.230,13.955 7.517,13.820 C13.295,13.192 18.981,11.580 25.394,7.460 C26.221,6.920 27.288,6.917 28.118,7.453 C34.529,11.573 40.217,13.180 45.999,13.813 C47.289,13.948 48.268,15.036 48.267,16.333 L48.267,28.548 C48.273,44.574 42.058,56.769 27.977,64.421 ZM45.735,16.333 C39.673,15.674 33.575,13.970 26.758,9.585 C19.936,13.971 13.840,15.676 7.788,16.333 L7.780,28.548 C7.788,43.640 13.488,54.972 26.740,62.194 L27.373,63.305 L26.768,62.193 C40.033,54.984 45.740,43.645 45.735,28.548 L45.735,16.333 Z"/>
</svg>