<svg
 xmlns="http://www.w3.org/2000/svg"
 xmlns:xlink="http://www.w3.org/1999/xlink"
 width="64px" height="65px">
<path fill-rule="evenodd"  fill="rgb(228, 32, 114)"
 d="M63.066,53.460 L55.605,19.780 C53.867,14.349 45.694,9.825 40.060,12.948 C39.149,13.453 38.371,14.108 37.742,14.872 L36.039,13.701 L36.039,2.240 C36.039,1.511 35.449,0.921 34.720,0.921 L29.444,0.921 C28.715,0.921 28.125,1.511 28.125,2.240 L28.125,13.701 L26.422,14.872 C25.793,14.108 25.015,13.453 24.104,12.948 C18.532,9.859 10.322,14.271 8.560,19.780 L1.099,53.460 C-1.166,60.537 8.219,67.001 15.057,64.116 L23.381,60.605 C26.317,59.367 28.214,56.507 28.214,53.320 L28.214,23.245 L29.799,22.155 C31.165,21.216 33.000,21.216 34.366,22.156 L35.951,23.245 L35.951,53.321 C35.951,56.507 37.848,59.367 40.784,60.605 L49.107,64.116 C55.954,67.005 65.327,60.528 63.066,53.460 ZM25.576,53.321 L25.576,53.321 C25.576,55.444 24.312,57.349 22.355,58.174 L14.032,61.686 C9.265,63.697 2.036,59.188 3.612,54.264 L11.073,20.584 C12.320,16.685 18.792,13.020 22.826,15.255 C24.441,16.150 25.494,17.702 25.576,19.943 L25.576,53.321 ZM35.948,20.041 C33.559,18.400 30.595,18.404 28.217,20.041 C28.192,19.080 28.111,18.192 27.736,17.170 L30.192,15.482 C30.550,15.236 30.763,14.830 30.763,14.395 L30.763,3.559 L33.402,3.559 L33.402,14.395 C33.402,14.830 33.615,15.236 33.973,15.483 L36.429,17.170 C36.064,18.162 35.974,19.043 35.948,20.041 ZM50.133,61.686 L41.809,58.174 C39.853,57.349 38.589,55.444 38.589,53.320 L38.589,19.951 C38.669,17.724 39.704,16.161 41.339,15.255 C45.367,13.022 51.842,16.676 53.092,20.584 L60.553,54.264 C62.131,59.194 54.894,63.695 50.133,61.686 Z"/>
</svg>