<svg
 xmlns="http://www.w3.org/2000/svg"
 xmlns:xlink="http://www.w3.org/1999/xlink"
 width="68px" height="77px">
<path fill-rule="evenodd"  fill="rgb(228, 32, 114)"
 d="M59.814,59.722 C59.422,60.199 58.717,60.268 58.240,59.875 C57.763,59.483 57.694,58.778 58.087,58.301 C62.654,52.749 65.169,45.721 65.169,38.513 C65.169,28.825 60.779,19.852 53.124,13.897 C53.114,13.889 53.103,13.881 53.093,13.872 C52.151,13.082 51.202,12.813 50.420,13.113 C49.835,13.339 49.417,13.867 49.328,14.494 C49.223,15.242 49.600,15.982 50.389,16.576 C53.723,19.070 56.489,22.347 58.385,26.049 C60.371,29.930 61.379,34.124 61.379,38.513 C61.379,52.305 51.075,63.990 37.411,65.692 C37.092,65.732 36.773,65.633 36.533,65.421 C36.292,65.208 36.155,64.903 36.155,64.582 L36.155,60.562 C36.147,60.241 36.035,59.999 35.848,59.900 C35.685,59.814 35.479,59.834 35.280,59.956 L26.220,66.608 C26.192,66.628 26.164,66.647 26.134,66.665 C25.884,66.816 25.728,67.001 25.728,67.148 C25.728,67.295 25.884,67.480 26.134,67.631 C26.164,67.649 26.192,67.668 26.220,67.688 L35.280,74.339 C35.479,74.462 35.685,74.482 35.848,74.396 C36.035,74.297 36.147,74.055 36.155,73.733 L36.155,70.648 C36.155,70.074 36.590,69.593 37.161,69.535 C43.659,68.878 49.693,66.240 54.610,61.905 C55.073,61.497 55.780,61.541 56.188,62.004 C56.597,62.468 56.552,63.174 56.089,63.583 C51.074,68.004 44.974,70.779 38.391,71.643 L38.391,73.746 C38.391,73.753 38.391,73.759 38.391,73.766 C38.370,74.913 37.811,75.887 36.895,76.372 C36.498,76.583 36.066,76.687 35.631,76.687 C35.085,76.687 34.535,76.524 34.038,76.200 C34.021,76.188 34.003,76.177 33.987,76.164 L24.933,69.518 C24.016,68.948 23.492,68.087 23.492,67.148 C23.492,66.209 24.016,65.348 24.933,64.778 L33.987,58.131 C34.004,58.119 34.021,58.108 34.038,58.096 C34.932,57.514 36.000,57.450 36.895,57.924 C37.811,58.409 38.370,59.383 38.391,60.530 C38.391,60.537 38.391,60.543 38.391,60.550 L38.391,63.284 C50.307,61.185 59.142,50.753 59.142,38.514 C59.142,30.507 55.462,23.164 49.046,18.365 C47.597,17.273 46.894,15.749 47.114,14.183 C47.315,12.752 48.274,11.542 49.618,11.026 C51.164,10.432 52.947,10.840 54.513,12.144 C58.436,15.200 61.681,19.158 63.898,23.594 C66.226,28.251 67.406,33.270 67.406,38.513 C67.406,46.239 64.710,53.771 59.814,59.722 ZM46.513,31.925 L46.152,32.286 C46.478,32.926 46.754,33.590 46.976,34.272 L47.484,34.272 C48.744,34.272 49.769,35.299 49.769,36.561 L49.769,40.466 C49.769,41.728 48.744,42.755 47.484,42.755 L46.976,42.755 C46.754,43.439 46.478,44.103 46.152,44.742 L46.513,45.102 C47.402,46.000 47.400,47.449 46.513,48.336 L43.749,51.100 C42.851,51.990 41.402,51.988 40.515,51.100 L40.153,50.739 C39.513,51.066 38.849,51.341 38.168,51.563 L38.168,52.072 C38.168,53.334 37.141,54.361 35.879,54.361 L31.973,54.361 C30.711,54.361 29.684,53.334 29.684,52.072 L29.684,51.564 C29.000,51.341 28.336,51.066 27.698,50.740 L27.338,51.100 L27.337,51.100 C26.440,51.990 24.991,51.988 24.103,51.100 L21.339,48.336 C20.452,47.449 20.451,45.999 21.335,45.106 L21.700,44.741 C21.374,44.103 21.098,43.439 20.876,42.755 L20.368,42.755 C19.108,42.755 18.083,41.728 18.083,40.466 L18.083,36.561 C18.083,35.298 19.108,34.272 20.368,34.272 L20.877,34.272 C21.098,33.590 21.374,32.926 21.700,32.286 L21.339,31.925 C20.452,31.037 20.451,29.588 21.335,28.694 L24.104,25.930 C24.530,25.500 25.106,25.261 25.720,25.261 C26.335,25.261 26.910,25.500 27.341,25.934 L27.696,26.288 C28.335,25.961 29.000,25.686 29.684,25.463 L29.684,24.955 C29.684,23.695 30.711,22.670 31.973,22.670 L35.879,22.670 C37.141,22.670 38.168,23.695 38.168,24.955 L38.168,25.464 C38.850,25.686 39.514,25.961 40.155,26.289 L40.516,25.929 C40.940,25.502 41.513,25.262 42.125,25.261 C42.127,25.261 42.128,25.261 42.130,25.261 C42.742,25.261 43.317,25.499 43.749,25.931 L46.512,28.690 C47.402,29.588 47.400,31.037 46.513,31.925 ZM45.053,35.667 C44.784,34.613 44.364,33.601 43.805,32.660 C43.545,32.220 43.615,31.660 43.976,31.298 L44.932,30.343 C44.947,30.327 44.948,30.288 44.928,30.268 L42.168,27.513 C42.163,27.508 42.153,27.497 42.130,27.497 L42.130,27.497 C42.111,27.497 42.103,27.505 42.100,27.508 L41.140,28.465 C40.778,28.825 40.218,28.894 39.780,28.634 C38.838,28.075 37.826,27.656 36.773,27.386 C36.278,27.260 35.931,26.814 35.931,26.303 L35.931,24.955 C35.931,24.931 35.905,24.906 35.879,24.906 L31.974,24.906 C31.948,24.906 31.921,24.931 31.921,24.955 L31.921,26.303 C31.921,26.814 31.575,27.260 31.080,27.386 C30.019,27.657 29.008,28.077 28.074,28.633 C27.636,28.894 27.075,28.825 26.713,28.465 L25.758,27.514 C25.732,27.488 25.703,27.493 25.689,27.508 L22.920,30.272 C22.905,30.288 22.906,30.328 22.921,30.343 L23.876,31.298 C24.238,31.660 24.308,32.220 24.047,32.660 C23.488,33.601 23.069,34.613 22.799,35.667 C22.673,36.162 22.227,36.508 21.716,36.508 L20.368,36.508 C20.346,36.508 20.320,36.533 20.320,36.561 L20.320,40.466 C20.320,40.497 20.345,40.518 20.368,40.518 L21.716,40.518 C22.227,40.518 22.673,40.865 22.799,41.360 C23.070,42.421 23.490,43.432 24.046,44.365 C24.308,44.805 24.238,45.367 23.876,45.728 L22.921,46.684 L22.921,46.684 C22.904,46.700 22.905,46.740 22.921,46.755 L25.685,49.519 C25.701,49.534 25.739,49.536 25.760,49.515 L26.711,48.564 C26.927,48.348 27.213,48.236 27.503,48.236 C27.699,48.236 27.897,48.288 28.075,48.394 C29.008,48.950 30.019,49.369 31.080,49.640 C31.575,49.766 31.921,50.213 31.921,50.724 L31.921,52.072 C31.921,52.097 31.949,52.124 31.974,52.124 L35.879,52.124 C35.904,52.124 35.931,52.097 35.931,52.072 L35.931,50.724 C35.931,50.213 36.278,49.767 36.773,49.640 C37.827,49.371 38.838,48.951 39.780,48.392 C40.219,48.132 40.780,48.202 41.141,48.563 L42.097,49.519 C42.112,49.534 42.151,49.536 42.171,49.515 L44.932,46.755 C44.947,46.739 44.948,46.700 44.928,46.680 L43.976,45.728 C43.615,45.367 43.544,44.805 43.806,44.365 C44.363,43.432 44.782,42.421 45.053,41.360 C45.179,40.865 45.625,40.518 46.136,40.518 L47.485,40.518 C47.507,40.518 47.533,40.497 47.533,40.466 L47.533,36.561 C47.533,36.533 47.506,36.508 47.485,36.508 L46.136,36.508 C45.625,36.508 45.179,36.162 45.053,35.667 ZM33.102,43.424 C32.907,43.654 32.627,43.797 32.326,43.818 C32.300,43.819 32.274,43.820 32.248,43.820 C31.974,43.820 31.708,43.720 31.503,43.536 L27.779,40.205 C27.319,39.793 27.279,39.086 27.691,38.626 C28.103,38.166 28.810,38.126 29.270,38.538 L32.136,41.102 L38.469,33.607 C38.867,33.136 39.573,33.077 40.045,33.475 C40.517,33.874 40.576,34.579 40.177,35.051 L33.102,43.424 ZM43.046,12.249 L33.992,18.896 C33.976,18.907 33.960,18.918 33.943,18.929 C33.051,19.514 31.983,19.581 31.087,19.108 C30.169,18.624 29.609,17.648 29.587,16.498 C29.587,16.490 29.587,16.484 29.587,16.477 L29.587,13.743 C17.672,15.847 8.837,26.278 8.837,38.514 C8.837,46.479 12.486,53.798 18.853,58.603 C20.534,59.674 21.435,61.247 21.327,62.926 C21.235,64.357 20.384,65.613 19.104,66.203 C18.578,66.446 18.012,66.565 17.426,66.565 C16.310,66.565 15.120,66.131 13.992,65.288 C5.822,59.176 0.939,49.836 0.595,39.663 C0.594,39.650 0.594,39.637 0.594,39.625 L0.594,37.402 C0.594,37.389 0.594,37.377 0.595,37.364 C0.832,30.297 3.250,23.610 7.587,18.026 C7.966,17.538 8.669,17.450 9.157,17.829 C9.644,18.208 9.733,18.910 9.354,19.398 C5.311,24.603 3.056,30.834 2.831,37.421 L2.831,39.606 C3.157,49.091 7.713,57.798 15.332,63.497 C16.374,64.276 17.407,64.523 18.167,64.172 C18.700,63.926 19.056,63.394 19.095,62.783 C19.150,61.935 18.613,61.092 17.622,60.470 C17.596,60.454 17.570,60.436 17.545,60.417 C14.221,57.918 11.467,54.645 9.581,50.952 C7.603,47.078 6.600,42.893 6.600,38.514 C6.600,24.726 16.904,13.042 30.567,11.335 C30.886,11.295 31.205,11.394 31.446,11.606 C31.686,11.818 31.824,12.124 31.824,12.444 L31.824,16.465 C31.832,16.789 31.944,17.031 32.131,17.130 C32.294,17.216 32.498,17.194 32.697,17.071 L41.759,10.419 C41.786,10.399 41.815,10.380 41.844,10.362 C42.095,10.211 42.251,10.026 42.251,9.879 C42.251,9.732 42.095,9.547 41.844,9.396 C41.816,9.378 41.787,9.359 41.760,9.340 L32.697,2.691 C32.499,2.568 32.294,2.546 32.131,2.632 C31.944,2.731 31.832,2.973 31.824,3.297 L31.824,6.379 C31.824,6.953 31.389,7.434 30.818,7.492 C24.084,8.174 17.883,10.964 12.888,15.558 C12.433,15.976 11.726,15.947 11.308,15.492 C10.889,15.038 10.919,14.330 11.374,13.912 C16.478,9.218 22.757,6.282 29.587,5.384 L29.587,3.286 C29.587,3.279 29.587,3.272 29.587,3.265 C29.609,2.115 30.169,1.139 31.087,0.654 C31.983,0.181 33.051,0.248 33.943,0.833 C33.959,0.844 33.976,0.855 33.991,0.866 L43.045,7.508 C43.962,8.079 44.487,8.940 44.487,9.879 C44.487,10.818 43.963,11.679 43.046,12.249 Z"/>
</svg>