<svg xmlns="http://www.w3.org/2000/svg" width="10.12mm" height="15.88mm" viewBox="0 0 28.67 45"><path d="M396.43,424.62a4.58,4.58,0,0,1-1.87,2.56,22.55,22.55,0,0,0,.43-4.26l0-2.35a1.2,1.2,0,0,1,.65,0,1.76,1.76,0,0,1,1,1.35A5,5,0,0,1,396.43,424.62Zm-13,13.52c-5.86,0-10.62-6.83-10.62-15.22l.07-5.36c0-1.51-.28-3.8,2.55-3.8,4.06,0,3.82,2.62,7.66,2.62s4.22-2.7,8.21-2.7c3.1,0,2.68,2.91,2.7,4.51l.06,4.73C394,431.31,389.26,438.14,383.4,438.14Zm-13.16-13.52a5,5,0,0,1-.19-2.7,1.72,1.72,0,0,1,1-1.35,1.33,1.33,0,0,1,.79,0l0,2.31a22.47,22.47,0,0,0,.43,4.33A4.41,4.41,0,0,1,370.24,424.62Zm27.31-2.92a2.67,2.67,0,0,0-1.64-2,2.07,2.07,0,0,0-.89-.08c.56-2.5,1.45-5.14,1.33-7.56-.23-4.76-3.39-8.69-13.26-9-6.3-.2-12.65,3.43-12.38,9.28a33,33,0,0,0,1.16,7v.31a2.28,2.28,0,0,0-1.1,0,2.6,2.6,0,0,0-1.64,2,5.85,5.85,0,0,0,.21,3.21,4.83,4.83,0,0,0,3.16,3.41,17.69,17.69,0,0,0,3.19,6.62l-.57,11.42a.57.57,0,0,0,0,.18.51.51,0,0,0,.09.16.72.72,0,0,0,.15.11.39.39,0,0,0,.18,0h0a.42.42,0,0,0,.32-.13.48.48,0,0,0,.15-.32l.52-10.46a9,9,0,0,0,13.66,0l.51,10.5a.48.48,0,0,0,.48.45h0a.61.61,0,0,0,.18-.05.33.33,0,0,0,.15-.11.46.46,0,0,0,.09-.15.4.4,0,0,0,0-.19l-.57-11.47a17.6,17.6,0,0,0,3.17-6.61,5,5,0,0,0,3-3.37A6,6,0,0,0,397.55,421.7Z" transform="translate(-369 -403)" fill="#2f457a"/><path d="M385.26,444.16a1.83,1.83,0,0,1-1.15,1.71,1.86,1.86,0,0,1-1.07.1,1.9,1.9,0,0,1-1-.5,1.85,1.85,0,0,1-.51-1,1.79,1.79,0,0,1,.11-1.07,2,2,0,0,1,.68-.83,1.92,1.92,0,0,1,1-.31,1.9,1.9,0,0,1,1.31.55A1.81,1.81,0,0,1,385.26,444.16Z" transform="translate(-369 -403)" fill="#ff3064"/><path d="M383.41,441.16a3,3,0,0,0-1.68.51,3,3,0,0,0-1.29,3.08,2.89,2.89,0,0,0,.83,1.53,3,3,0,0,0,3.29.65,3,3,0,0,0,1.36-1.1,3,3,0,0,0,.51-1.67,3,3,0,0,0-.89-2.12,3,3,0,0,0-2.13-.89Zm0,6.84a3.83,3.83,0,0,1-.76-7.6,3.86,3.86,0,0,1,2.23.21,3.9,3.9,0,0,1,1.74,1.42,3.84,3.84,0,0,1,.65,2.13,3.8,3.8,0,0,1-1.14,2.71A3.85,3.85,0,0,1,383.41,448Z" transform="translate(-369 -403)" fill="#ff3064"/></svg>