<svg xmlns="http://www.w3.org/2000/svg" width="19.06mm" height="18.79mm" viewBox="0 0 54.03 53.25"><path d="M88.27,425a5,5,0,0,1-1.89,2.73,24.77,24.77,0,0,0,.42-4.55l0-2.51a1.24,1.24,0,0,1,.66,0,1.8,1.8,0,0,1,1,1.43A5.7,5.7,0,0,1,88.27,425Zm-13.13,14.4c-5.9,0-10.71-7.27-10.71-16.21l.08-6.14c0-.84-.37-3.61,2.57-3.61,4.08,0,3.85,2.78,7.71,2.78s4.25-2.88,8.27-2.88c3.08,0,2.71,3.13,2.72,4.11l.07,5.73C85.85,432.14,81.05,439.41,75.14,439.41ZM61.88,425a5.71,5.71,0,0,1-.2-2.87,1.84,1.84,0,0,1,1-1.44,1.19,1.19,0,0,1,.79,0l0,2.49a24.57,24.57,0,0,0,.44,4.61A4.69,4.69,0,0,1,61.88,425Zm27.51-3.11a2.76,2.76,0,0,0-1.65-2.15,2,2,0,0,0-.9-.09c.56-2.66,1.45-5.47,1.34-8.05-.23-5.09-3.41-9.26-13.35-9.61-6.35-.23-12.75,3.64-12.48,9.88a37.58,37.58,0,0,0,1.18,7.5v.31a2.09,2.09,0,0,0-1.11.05,2.78,2.78,0,0,0-1.66,2.16,6.73,6.73,0,0,0,.22,3.42c.6,1.93,1.87,3.35,3.19,3.63A19.15,19.15,0,0,0,67.38,436l-.58,10.73a.41.41,0,0,0,0,.19,1,1,0,0,0,.1.17.33.33,0,0,0,.15.11.41.41,0,0,0,.18.05h0a.44.44,0,0,0,.33-.14.49.49,0,0,0,.15-.34l.52-9.69a8.76,8.76,0,0,0,13.77,0l.52,9.72a.53.53,0,0,0,.15.34.47.47,0,0,0,.33.14h0a.41.41,0,0,0,.19-.05.48.48,0,0,0,.15-.11.56.56,0,0,0,.09-.17.63.63,0,0,0,0-.19L82.94,436a19.52,19.52,0,0,0,3.18-7,5.17,5.17,0,0,0,3-3.59A6.72,6.72,0,0,0,89.39,421.9Z" transform="translate(-48 -394)" fill="#2f457a"/><path d="M74.89,405.46a.31.31,0,0,1-.21,0,.36.36,0,0,1-.15-.15,6,6,0,0,1,0-5.76,4.66,4.66,0,0,0,0-4.79.39.39,0,0,1-.07-.16.47.47,0,0,1,0-.17.49.49,0,0,1,.06-.17.34.34,0,0,1,.12-.12.36.36,0,0,1,.15-.08H75a.44.44,0,0,1,.16.06.34.34,0,0,1,.12.12,5.53,5.53,0,0,1,0,5.73,5,5,0,0,0,0,4.85.46.46,0,0,1,.06.23.37.37,0,0,1,0,.23.44.44,0,0,1-.16.17A.39.39,0,0,1,74.89,405.46Z" transform="translate(-48 -394)" fill="#ff3064"/><path d="M77.31,405.46a.29.29,0,0,1-.2,0,.39.39,0,0,1-.16-.15,6,6,0,0,1,0-5.76,4.66,4.66,0,0,0,0-4.79.59.59,0,0,1-.07-.16.48.48,0,0,1,0-.17.44.44,0,0,1,.06-.16.47.47,0,0,1,.11-.13.41.41,0,0,1,.32-.08.43.43,0,0,1,.28.18,5.58,5.58,0,0,1,0,5.73,5,5,0,0,0,0,4.86.43.43,0,0,1,0,.33.42.42,0,0,1-.18.28A.39.39,0,0,1,77.31,405.46Z" transform="translate(-48 -394)" fill="#ff3064"/><path d="M72.47,405.46a.3.3,0,0,1-.21,0,.46.46,0,0,1-.16-.15,6,6,0,0,1,0-5.76,4.7,4.7,0,0,0,0-4.79.42.42,0,0,1-.08-.33.46.46,0,0,1,.17-.29.41.41,0,0,1,.32-.08.4.4,0,0,1,.28.18,5.58,5.58,0,0,1,0,5.73,5,5,0,0,0,0,4.85.39.39,0,0,1,.07.23.46.46,0,0,1,0,.23.44.44,0,0,1-.16.17A.39.39,0,0,1,72.47,405.46Z" transform="translate(-48 -394)" fill="#ff3064"/><path d="M56.49,436.69a3.65,3.65,0,0,1-.57,2,3.47,3.47,0,0,1-1.5,1.29,3.16,3.16,0,0,1-1.94.2,3.26,3.26,0,0,1-1.71-1,3.57,3.57,0,0,1-.92-1.8,3.7,3.7,0,0,1,.19-2,3.39,3.39,0,0,1,1.23-1.58,3.22,3.22,0,0,1,1.86-.6,3.26,3.26,0,0,1,2.37,1A3.62,3.62,0,0,1,56.49,436.69Z" transform="translate(-48 -394)" fill="#ff3064"/><path d="M53.13,412a1.87,1.87,0,0,0-1.34.58,2.14,2.14,0,0,0-.56,1.41v18.75l-.22.14A4.38,4.38,0,0,0,49.23,435a4.6,4.6,0,0,0-.18,2.84,4.51,4.51,0,0,0,1.52,2.37,4.08,4.08,0,0,0,5.14,0,4.49,4.49,0,0,0,1.51-2.37,4.67,4.67,0,0,0-.17-2.84,4.4,4.4,0,0,0-1.79-2.15l-.22-.14V414a2.07,2.07,0,0,0-.56-1.41A1.88,1.88,0,0,0,53.13,412Zm0,30.11A5,5,0,0,1,50.07,441a5.43,5.43,0,0,1-1.86-2.79,5.68,5.68,0,0,1,.1-3.39,5.37,5.37,0,0,1,2-2.66V414a3,3,0,0,1,.82-2.09,2.73,2.73,0,0,1,4,0A3.08,3.08,0,0,1,56,414v18.21a5.35,5.35,0,0,1,2,2.66,5.56,5.56,0,0,1,.1,3.4A5.33,5.33,0,0,1,56.21,441a5,5,0,0,1-3.07,1.07Z" transform="translate(-48 -394)" fill="#2f457a"/><rect x="4.13" y="23.98" width="2.02" height="15.97" fill="#ff3064"/><path d="M100.23,436.1a3.72,3.72,0,0,1-.56,1.95,3.45,3.45,0,0,1-1.51,1.3,3.23,3.23,0,0,1-1.94.2,3.28,3.28,0,0,1-1.71-1,3.57,3.57,0,0,1-.92-1.8,3.61,3.61,0,0,1,.2-2A3.45,3.45,0,0,1,95,433.17a3.24,3.24,0,0,1,4.23.44A3.61,3.61,0,0,1,100.23,436.1Z" transform="translate(-48 -394)" fill="#2f457a"/><path d="M96.89,411.38a1.89,1.89,0,0,0-1.35.59,2.06,2.06,0,0,0-.55,1.41v18.75l-.23.14A4.34,4.34,0,0,0,93,434.42a4.67,4.67,0,0,0-.17,2.84,4.47,4.47,0,0,0,1.51,2.37,4.08,4.08,0,0,0,5.14,0,4.47,4.47,0,0,0,1.51-2.37,4.67,4.67,0,0,0-.17-2.84A4.39,4.39,0,0,0,99,432.27l-.23-.14V413.38a2,2,0,0,0-.56-1.41A1.84,1.84,0,0,0,96.89,411.38Zm0,30.11a5,5,0,0,1-3.07-1.06A5.43,5.43,0,0,1,92,437.64a5.68,5.68,0,0,1,.1-3.39,5.33,5.33,0,0,1,2-2.66V413.38a3,3,0,0,1,.82-2.09,2.71,2.71,0,0,1,4,0,3,3,0,0,1,.82,2.09v18.21a5.33,5.33,0,0,1,2,2.66,5.61,5.61,0,0,1,.09,3.39,5.35,5.35,0,0,1-1.85,2.79A5,5,0,0,1,96.89,441.49Z" transform="translate(-48 -394)" fill="#2f457a"/><rect x="47.87" y="37.33" width="2.02" height="2.03" fill="#2f457a"/></svg>