<svg xmlns="http://www.w3.org/2000/svg" width="15.88mm" height="16.19mm" viewBox="0 0 45 45.9"><path d="M397.32,384.09v0a.29.29,0,0,1,0-.13.61.61,0,0,1,.05-.12.38.38,0,0,1,.09-.09.21.21,0,0,1,.12,0l4.5-.9-.31-.95a.31.31,0,0,1,0-.13.28.28,0,0,1,0-.13.31.31,0,0,1,.09-.11.27.27,0,0,1,.12-.06l4.62-1.05a.2.2,0,0,1,.13,0,.28.28,0,0,1,.12,0,.2.2,0,0,1,.09.09.17.17,0,0,1,.05.12.25.25,0,0,1,0,.12.56.56,0,0,1,0,.12.38.38,0,0,1-.09.09.27.27,0,0,1-.12.06l-4.27,1,.34.95a.32.32,0,0,1,0,.14.31.31,0,0,1,0,.13.31.31,0,0,1-.09.11l-.13.05-4.88,1a.29.29,0,0,1-.24,0A.33.33,0,0,1,397.32,384.09Z" transform="translate(-362 -348)" fill="#ff3064"/><path d="M398.24,386.56a.38.38,0,0,1,0-.15.56.56,0,0,1,0-.12.39.39,0,0,1,.08-.1l.11-.06h.13l3.75.4v-.75a.39.39,0,0,1,.1-.25.24.24,0,0,1,.12-.07.3.3,0,0,1,.13,0l3.94.3a.33.33,0,0,1,.22.11.31.31,0,0,1,.08.24.36.36,0,0,1-.11.22.37.37,0,0,1-.24.08l-3.57-.27v.75a.31.31,0,0,1,0,.13.44.44,0,0,1-.08.11.24.24,0,0,1-.12.07.2.2,0,0,1-.13,0l-4.12-.43a.28.28,0,0,1-.18-.06A.41.41,0,0,1,398.24,386.56Z" transform="translate(-362 -348)" fill="#ff3064"/><path d="M396.47,381.36a.28.28,0,0,1,0-.22.28.28,0,0,1,.15-.17l3.36-1.72-.45-.63a.18.18,0,0,1,0-.12.33.33,0,0,1,0-.14.27.27,0,0,1,.06-.12.22.22,0,0,1,.1-.09l3.46-1.9.12,0a.3.3,0,0,1,.13,0l.11,0a.39.39,0,0,1,.08.1.28.28,0,0,1,0,.12.29.29,0,0,1,0,.13.24.24,0,0,1-.06.11.34.34,0,0,1-.09.08l-3.15,1.73.45.64a.27.27,0,0,1,.06.12.23.23,0,0,1,0,.14.27.27,0,0,1-.06.12.22.22,0,0,1-.1.09l-3.69,1.88a.33.33,0,0,1-.24,0,.36.36,0,0,1-.2-.16A.2.2,0,0,1,396.47,381.36Z" transform="translate(-362 -348)" fill="#ff3064"/><path d="M371.68,384.09v0a.4.4,0,0,0,0-.25l-.1-.09a.21.21,0,0,0-.11,0l-4.51-.9.33-.95a.31.31,0,0,0,0-.13.28.28,0,0,0,0-.13.31.31,0,0,0-.09-.11l-.12-.06-4.64-1.05a.29.29,0,0,0-.13,0,.31.31,0,0,0-.12.05l-.09.08a.61.61,0,0,0-.05.12.28.28,0,0,0,0,.13.36.36,0,0,0,0,.11.38.38,0,0,0,.09.09.23.23,0,0,0,.12.06l4.24,1-.34.95a.47.47,0,0,0,0,.27.32.32,0,0,0,.1.1.27.27,0,0,0,.12.06l4.89,1a.25.25,0,0,0,.12,0,.28.28,0,0,0,.13,0,.39.39,0,0,0,.1-.08A.27.27,0,0,0,371.68,384.09Z" transform="translate(-362 -348)" fill="#ff3064"/><path d="M370.75,386.56a.38.38,0,0,0,0-.15.35.35,0,0,0-.12-.22.34.34,0,0,0-.24-.07l-3.75.4v-.75a.4.4,0,0,0,0-.25.41.41,0,0,0-.11-.07l-.14,0-3.94.3-.12,0a.39.39,0,0,0-.1.08.24.24,0,0,0-.06.11.27.27,0,0,0,0,.13.56.56,0,0,0,0,.12.25.25,0,0,0,.08.1.24.24,0,0,0,.11.06.27.27,0,0,0,.13,0l3.57-.27v.75a.2.2,0,0,0,0,.13.26.26,0,0,0,.07.11.42.42,0,0,0,.12.08.33.33,0,0,0,.14,0l4.12-.43a.51.51,0,0,0,.15-.07A.38.38,0,0,0,370.75,386.56Z" transform="translate(-362 -348)" fill="#ff3064"/><path d="M372.51,381.36a.37.37,0,0,0,0-.23.26.26,0,0,0-.15-.16L369,379.25l.45-.63a.43.43,0,0,0,0-.12.33.33,0,0,0,0-.14.34.34,0,0,0-.16-.21l-3.47-1.9-.12,0h-.12l-.12.06a.39.39,0,0,0-.08.1.31.31,0,0,0,0,.25.3.3,0,0,0,.16.19l3.16,1.73-.45.64a.43.43,0,0,0-.05.12.33.33,0,0,0,0,.14.23.23,0,0,0,.06.12.31.31,0,0,0,.11.09l3.69,1.88a.33.33,0,0,0,.24,0,.34.34,0,0,0,.19-.16A.09.09,0,0,0,372.51,381.36Z" transform="translate(-362 -348)" fill="#ff3064"/><path d="M379.06,380.7l.33-4.9,2.18-.85a.6.6,0,0,0,.3-.29.49.49,0,0,0,0-.41.52.52,0,0,0-.28-.3.55.55,0,0,0-.42,0l-4.91,1.95a1.74,1.74,0,0,1-1.55-.29,2.87,2.87,0,0,1-.84-1,2.76,2.76,0,0,1-.31-1.26l-.84-5.76a.47.47,0,0,0-.16-.31.5.5,0,0,0-.32-.15l-1.7-.14a.46.46,0,0,1-.19-.08.51.51,0,0,1-.13-.16.39.39,0,0,1,0-.38l2-3.47a3.53,3.53,0,0,0,.55-2.14v-.84a15,15,0,0,1,.62-4.57,3.45,3.45,0,0,0,.95.45L378,357a2.28,2.28,0,0,1,1.5,2.71l-.19,1.09a1,1,0,0,0,0,.42,1,1,0,0,0,.15.4,1.07,1.07,0,0,0,.3.3,1.11,1.11,0,0,0,.39.16c2.59.48,1.71.53,2.52-.07a2.79,2.79,0,0,1,1.35-.4,2.85,2.85,0,0,1,1.37.3c.68.39.92,1.3.68,2.64s-.91,3.07-2.36,3.07a1.91,1.91,0,0,1-1-.33.5.5,0,0,0-.2-.08h-.21a.72.72,0,0,0-.2.09.4.4,0,0,0-.14.15.54.54,0,0,0,.15.75,3,3,0,0,0,1.64.51,2.81,2.81,0,0,0,1.21-.27,2.87,2.87,0,0,0,1-.78c1.38,1.22,2.34,1.89,3.5,1.76l.81,9.3Z" transform="translate(-362 -348)" fill="#2f457a"/><polygon points="29.91 32.81 14.2 36.77 14.95 34.19 29.46 31.52 29.91 32.81" fill="#2f457a"/><path d="M374,393.86a.51.51,0,0,0,.19-.3l1.7-7.61,16.57-4.18c1.3,1.5,2.55,7.07,1.93,10.38a.51.51,0,0,0,.09.41.52.52,0,0,0,.35.22h.1a.5.5,0,0,0,.34-.12.59.59,0,0,0,.19-.32c.66-3.53-.66-9.8-2.35-11.47l-.75-2.19a.55.55,0,0,0-.25-.29.53.53,0,0,0-.37-.07l-.53.1-.83-9.36c0-3.26,7-4.67,5.71-12.2-.95-5.38-5.93-8.36-11.15-8.7-6.25-.42-14.26-.23-14.26,3.34a3.35,3.35,0,0,0,.48,1.78,3.22,3.22,0,0,0,1.36,1.25,15.08,15.08,0,0,0-.85,5.33v.82a2.49,2.49,0,0,1-.44,1.65l-2,3.48a1.47,1.47,0,0,0-.21.71,1.5,1.5,0,0,0,.17.72,1.45,1.45,0,0,0,.48.56,1.61,1.61,0,0,0,.7.26l1.29.11.75,5.25a3.87,3.87,0,0,0,.44,1.74,3.93,3.93,0,0,0,1.17,1.36,2.72,2.72,0,0,0,2.56.42l1.68-.66-.32,4.65-1.54.28a.58.58,0,0,0-.26.13.54.54,0,0,0-.16.26l-1.11,3.77v0l-1.77,7.93a.5.5,0,0,0,0,.21.68.68,0,0,0,.07.2.54.54,0,0,0,.15.15" transform="translate(-362 -348)" fill="#2f457a"/></svg>