<svg xmlns="http://www.w3.org/2000/svg" width="14.86mm" height="15.87mm" viewBox="0 0 42.11 44.98"><path d="M60.65,368.6c-.61-1.87-.22-3.76.86-4.12a1.4,1.4,0,0,1,.86,0v2.37a22.72,22.72,0,0,0,.45,4.43,4.58,4.58,0,0,1-1.36-1.12A4.39,4.39,0,0,1,60.65,368.6Zm27.08-2.92a2.55,2.55,0,0,0-.53-1.2,2.49,2.49,0,0,0-1.06-.78,1.91,1.91,0,0,0-1-.07c0-2.06.71-4.2.81-6.25.27-5.49-1.56-10.3-12.54-10.38-6.26,0-12.17,4.48-11.84,9.27l.48,4.14a15,15,0,0,1,.28,3.24,2.17,2.17,0,0,0-1.13.05c-1.56.51-2.17,2.78-1.41,5.16A4.71,4.71,0,0,0,63,372.22a17.45,17.45,0,0,0,3.17,6.66l-.56,10.95a.46.46,0,0,0,.11.3.39.39,0,0,0,.28.13.44.44,0,0,0,.29-.11.44.44,0,0,0,.12-.28l.53-10.08A9.41,9.41,0,0,0,73.77,383a7,7,0,0,0,.8,0,.39.39,0,0,0,.28-.15.41.41,0,0,0,.1-.3.48.48,0,0,0-.15-.28.5.5,0,0,0-.31-.1,5.49,5.49,0,0,1-.7.05c-5.84,0-10.59-6.85-10.59-15.25l.06-4.52c0-3.09,1.88-4,3.85-3.42l3,.91a11.51,11.51,0,0,0,6.8-.05l3.62-1.14c4.14-1.31,3.8,3.53,3.8,4.24l0,4A21.87,21.87,0,0,1,84,371a.43.43,0,0,0,0,.16.34.34,0,0,0,.06.15.32.32,0,0,0,.12.11.35.35,0,0,0,.14.06h.09a.41.41,0,0,0,.26-.09.48.48,0,0,0,.14-.25,22.71,22.71,0,0,0,.41-4.27v-2.41a1.42,1.42,0,0,1,.71,0,1.82,1.82,0,0,1,1,1.41,5.08,5.08,0,0,1-.19,2.73,4.72,4.72,0,0,1-1.86,2.57l.42.71a5.48,5.48,0,0,0,2.21-3A5.85,5.85,0,0,0,87.73,365.68Z" transform="translate(-53.85 -347)" fill="#2f457a"/><path d="M88.85,387.52l-2.12-3.43a5.83,5.83,0,0,0,.09-2.12l-.92-9.55a1.91,1.91,0,0,0-1.37-1.65,1.9,1.9,0,0,0-.75-.06,1.83,1.83,0,0,0-.72.22,1.91,1.91,0,0,0-.58.48,2,2,0,0,0-.35.67,1.85,1.85,0,0,0-.06.74l.17,1.11-3.85-5.86a1.81,1.81,0,0,0-1.11-.76,1.76,1.76,0,0,0-1.32.25,1.62,1.62,0,0,0-.62.7l-.34-.52a1.75,1.75,0,0,0-1.12-.75,1.73,1.73,0,0,0-1.31.25,1.6,1.6,0,0,0-.49.48,1.77,1.77,0,0,0-.27.63,1.73,1.73,0,0,0,0,.68,1.8,1.8,0,0,0,.26.64,1.81,1.81,0,0,0-.93.28,1.86,1.86,0,0,0-.49.48,1.8,1.8,0,0,0-.26.64,1.65,1.65,0,0,0,0,.7,1.74,1.74,0,0,0,.26.65l.29.44a1.74,1.74,0,0,0-1.51.94,1.76,1.76,0,0,0-.19.9,1.62,1.62,0,0,0,.29.87L73,381l3.27,5a5.78,5.78,0,0,0,1.61,1.62,5.66,5.66,0,0,0,2.11.87l2,3.36a.5.5,0,0,0,.15.14.46.46,0,0,0,.2.05.48.48,0,0,0,.23-.07.41.41,0,0,0,.17-.26.47.47,0,0,0,0-.31l-2.12-3.46a.48.48,0,0,0-.21-.19h-.1a4.91,4.91,0,0,1-1.91-.74A4.86,4.86,0,0,1,77,385.51l-2.07-3.16-4.73-7.2a1.09,1.09,0,0,1-.15-.35.77.77,0,0,1,0-.37,1,1,0,0,1,.42-.6.91.91,0,0,1,.7-.14,1,1,0,0,1,.34.14.93.93,0,0,1,.25.27l3.72,5.64a.4.4,0,0,0,.15.14.45.45,0,0,0,.19.05.39.39,0,0,0,.23-.07.44.44,0,0,0,.18-.26.43.43,0,0,0-.06-.31L71.31,372a.91.91,0,0,1-.14-.34.92.92,0,0,1,0-.37.81.81,0,0,1,.14-.33.88.88,0,0,1,.25-.26,1,1,0,0,1,1.29.27l4.67,7.13a.4.4,0,0,0,.15.14.49.49,0,0,0,.2.05.41.41,0,0,0,.22-.07.34.34,0,0,0,.12-.12.35.35,0,0,0,.06-.14.49.49,0,0,0,0-.17.47.47,0,0,0-.06-.15l-4.67-7.13-.82-1.23a.85.85,0,0,1-.14-.34.92.92,0,0,1,0-.37,1,1,0,0,1,.26-.47.92.92,0,0,1,1-.19.91.91,0,0,1,.41.34l5.49,8.38a.42.42,0,0,0,.26.19.45.45,0,0,0,.32-.06.4.4,0,0,0,.18-.26.41.41,0,0,0-.06-.32l-4.34-6.6a1,1,0,0,1-.13-.71,1,1,0,0,1,.4-.59.95.95,0,0,1,1.28.27l4.77,7.29.09.08h.26a.34.34,0,0,0,.17-.05.2.2,0,0,0,.08-.08.83.83,0,0,0,.07-.13.38.38,0,0,0,0-.15l-.27-2.82a1.07,1.07,0,0,1,.24-.79,1.05,1.05,0,0,1,.72-.4,1.16,1.16,0,0,1,.42,0,1,1,0,0,1,.37.2,1.07,1.07,0,0,1,.4.71l1,9.52v0a4.91,4.91,0,0,1-.11,2,.29.29,0,0,0,0,.13.36.36,0,0,0,0,.11L88.16,388a.38.38,0,0,0,.15.13.32.32,0,0,0,.19.05.46.46,0,0,0,.23-.06.44.44,0,0,0,.12-.55Z" transform="translate(-53.85 -347)" fill="#2f457a"/><path d="M74.25,364.39c2.65,2.85,5.33,6.1,8,9.25L83,373c-2.62-3.13-5.31-6.41-8-9.29ZM65.9,375c3-3.55,6-7.34,9.11-10.62l-.76-.71c-3.1,3.3-6.16,7.15-9.15,10.66Zm7.9,7.13a95.23,95.23,0,0,0-8-7.86l-.68.79A94.47,94.47,0,0,1,73,382.83Zm.83-18.1.38-.36-.38-.41-.38.41ZM65.5,374.67l-.4-.33-.33.39.39.34Z" transform="translate(-53.85 -347)" fill="#2f457a"/><path d="M62.5,373.44l-8.08-1.1-.13,1,8.08,1.1Zm-8.08-1.1a.49.49,0,0,0-.56.42.5.5,0,0,0,.43.57Zm7.95,2.09a.5.5,0,0,0,.56-.43.5.5,0,0,0-.43-.56Z" transform="translate(-53.85 -347)" fill="#2f457a"/><path d="M62.7,375.76l-7.92,1.95.24,1,7.92-1.95Zm-7.92,1.95a.5.5,0,0,0-.37.61.5.5,0,0,0,.61.36Zm8.16-1a.5.5,0,0,0,.36-.61.48.48,0,0,0-.6-.36Z" transform="translate(-53.85 -347)" fill="#2f457a"/><path d="M87.36,373.61l8.14-.56-.07-1-8.14.56Zm8.14-.56a.5.5,0,0,0-.07-1Zm-8.21-.44a.5.5,0,1,0,.07,1Z" transform="translate(-53.85 -347)" fill="#2f457a"/><path d="M86.64,375.86l7.77,2.49.31-1L87,374.91Zm7.77,2.49A.5.5,0,0,0,95,378a.49.49,0,0,0-.32-.63ZM87,374.91a.5.5,0,0,0-.63.33.49.49,0,0,0,.32.62Z" transform="translate(-53.85 -347)" fill="#2f457a"/></svg>