<svg
 xmlns="http://www.w3.org/2000/svg"
 xmlns:xlink="http://www.w3.org/1999/xlink"
 width="71px" height="71px">
<path fill-rule="evenodd"  fill="rgb(33, 94, 171)"
 d="M68.378,64.324 C68.244,64.980 67.985,65.590 67.627,66.130 L69.157,67.659 L67.702,69.114 L66.172,67.584 C65.633,67.942 65.023,68.201 64.367,68.334 L64.367,70.495 L62.310,70.495 L62.310,68.334 C61.654,68.201 61.044,67.941 60.505,67.584 L58.975,69.113 L57.521,67.659 L59.050,66.129 C58.692,65.590 58.433,64.980 58.300,64.324 L56.139,64.324 L56.139,62.267 L58.300,62.267 C58.433,61.611 58.693,61.001 59.050,60.462 L57.521,58.932 L58.975,57.477 L60.505,59.007 C61.044,58.649 61.655,58.390 62.310,58.256 L62.310,56.096 L64.367,56.096 L64.367,58.256 C65.023,58.390 65.633,58.649 66.173,59.007 L67.702,57.477 L69.157,58.932 L67.627,60.462 C67.985,61.001 68.244,61.611 68.378,62.267 L70.538,62.267 L70.538,64.324 L68.378,64.324 ZM63.339,60.210 C61.637,60.210 60.253,61.594 60.253,63.296 C60.253,64.997 61.637,66.381 63.339,66.381 C65.040,66.381 66.424,64.997 66.424,63.296 C66.424,61.594 65.040,60.210 63.339,60.210 ZM33.723,15.686 L35.780,15.686 L35.780,17.743 L33.723,17.743 L33.723,15.686 ZM39.894,17.743 L39.894,19.800 L37.837,19.800 L37.837,17.743 L39.894,17.743 ZM58.523,49.816 L57.857,51.762 L55.911,51.095 L56.578,49.149 L58.523,49.816 ZM57.611,29.006 C59.182,32.691 59.979,36.607 59.979,40.668 C59.979,43.057 59.693,45.441 59.130,47.753 L57.131,47.266 C57.592,45.374 57.853,43.430 57.910,41.477 L54.645,40.694 L49.894,43.678 L43.557,38.573 L46.215,33.590 L48.949,30.648 L49.030,27.199 C44.885,24.836 42.021,20.475 41.760,15.435 C38.236,13.810 34.474,12.960 30.561,12.904 L23.678,19.543 L23.678,26.438 L24.986,29.057 L23.145,29.976 L21.621,26.923 L21.621,18.669 L27.469,13.028 C13.411,14.383 2.382,26.261 2.382,40.668 C2.382,47.633 4.960,54.006 9.210,58.885 L10.349,53.741 L8.644,46.504 L14.588,41.388 L23.012,41.388 L29.204,46.373 L34.146,44.252 L32.752,40.228 L25.589,34.870 L24.064,31.816 L25.905,30.897 L27.212,33.515 L34.489,38.958 L36.717,45.387 L28.878,48.752 L22.287,43.445 L15.352,43.445 L10.933,47.248 L12.459,53.727 L10.920,60.681 C12.684,62.376 14.670,63.841 16.831,65.028 L20.905,55.510 L27.909,53.722 L35.486,58.696 L42.726,59.980 L52.255,57.476 C53.348,56.041 54.305,54.500 55.105,52.866 L56.952,53.771 C54.533,58.711 50.797,62.886 46.149,65.846 C41.372,68.887 35.841,70.495 30.152,70.495 C22.185,70.495 14.695,67.393 9.061,61.759 C3.428,56.125 0.325,48.635 0.325,40.668 C0.325,32.701 3.428,25.211 9.061,19.577 C14.695,13.944 22.185,10.841 30.152,10.841 C34.214,10.841 38.130,11.638 41.815,13.209 C42.554,5.958 48.696,0.282 56.139,0.282 C64.079,0.282 70.538,6.741 70.538,14.681 C70.538,22.124 64.862,28.266 57.611,29.006 ZM30.152,68.438 C35.449,68.438 40.598,66.942 45.044,64.111 C46.796,62.995 48.405,61.692 49.854,60.234 L42.811,62.084 L34.710,60.648 L27.538,55.940 L22.396,57.252 L18.672,65.952 C22.173,67.548 26.061,68.438 30.152,68.438 ZM47.904,34.794 L46.173,38.039 L50.042,41.155 L54.284,38.492 L57.889,39.356 C57.725,35.768 56.885,32.313 55.385,29.061 C53.872,28.982 52.420,28.668 51.065,28.156 L50.987,31.476 L47.904,34.794 ZM56.139,2.339 C49.334,2.339 43.797,7.876 43.797,14.681 C43.797,21.487 49.334,27.023 56.139,27.023 C62.945,27.023 68.481,21.487 68.481,14.681 C68.481,7.876 62.945,2.339 56.139,2.339 ZM60.253,21.881 L52.025,21.881 L52.025,18.795 L48.940,18.795 L48.940,10.567 L52.025,10.567 L52.025,7.482 L60.253,7.482 L60.253,10.567 L63.339,10.567 L63.339,18.795 L60.253,18.795 L60.253,21.881 ZM61.282,16.738 L61.282,12.624 L58.196,12.624 L58.196,9.539 L54.082,9.539 L54.082,12.624 L50.997,12.624 L50.997,16.738 L54.082,16.738 L54.082,19.824 L58.196,19.824 L58.196,16.738 L61.282,16.738 ZM11.813,10.316 L13.343,11.845 L11.888,13.300 L10.359,11.770 C9.819,12.128 9.209,12.387 8.553,12.520 L8.553,14.681 L6.496,14.681 L6.496,12.520 C5.841,12.387 5.231,12.128 4.691,11.770 L3.161,13.300 L1.707,11.845 L3.236,10.316 C2.879,9.776 2.619,9.166 2.486,8.510 L0.325,8.510 L0.325,6.453 L2.486,6.453 C2.619,5.798 2.879,5.187 3.236,4.648 L1.707,3.118 L3.161,1.663 L4.691,3.193 C5.231,2.835 5.841,2.576 6.496,2.442 L6.496,0.282 L8.553,0.282 L8.553,2.443 C9.209,2.576 9.819,2.835 10.359,3.193 L11.888,1.663 L13.343,3.118 L11.813,4.648 C12.171,5.187 12.430,5.798 12.564,6.453 L14.724,6.453 L14.724,8.510 L12.564,8.510 C12.430,9.166 12.171,9.776 11.813,10.316 ZM7.525,4.396 C5.823,4.396 4.439,5.780 4.439,7.482 C4.439,9.183 5.823,10.567 7.525,10.567 C9.226,10.567 10.610,9.183 10.610,7.482 C10.610,5.780 9.226,4.396 7.525,4.396 Z"/>
</svg>