<svg
 xmlns="http://www.w3.org/2000/svg"
 xmlns:xlink="http://www.w3.org/1999/xlink"
 width="63px" height="66px">
<path fill-rule="evenodd"  fill="rgb(33, 94, 171)"
 d="M54.658,31.962 L56.569,31.962 L56.569,33.873 L54.658,33.873 L54.658,31.962 ZM55.614,39.606 C51.926,39.606 48.925,36.605 48.925,32.917 C48.925,30.726 50.011,28.671 51.792,27.428 L51.792,9.029 C51.792,6.921 53.506,5.207 55.614,5.207 C57.721,5.207 59.436,6.921 59.436,9.029 L59.436,17.440 L57.525,17.440 L57.525,14.574 L53.703,14.574 L53.703,17.440 L55.614,17.440 L55.614,19.351 L53.703,19.351 L53.703,22.218 L55.614,22.218 L55.614,24.129 L53.703,24.129 L53.703,26.996 L55.614,26.996 L55.614,28.907 L53.020,28.907 C51.668,29.784 50.836,31.298 50.836,32.917 C50.836,35.552 52.979,37.695 55.614,37.695 C58.248,37.695 60.391,35.552 60.391,32.917 C60.391,31.217 59.476,29.631 58.002,28.778 L57.525,28.502 L57.525,19.351 L59.436,19.351 L59.436,27.428 C61.217,28.671 62.302,30.726 62.302,32.917 C62.302,36.605 59.302,39.606 55.614,39.606 ZM53.703,12.663 L57.525,12.663 L57.525,9.029 C57.525,7.975 56.668,7.118 55.614,7.118 C54.560,7.118 53.703,7.975 53.703,9.029 L53.703,12.663 ZM47.929,43.063 C54.967,45.142 58.687,48.942 58.687,54.053 L58.687,65.500 L53.909,65.500 L53.909,63.589 L56.776,63.589 L56.776,54.053 C56.776,49.816 53.617,46.735 47.388,44.896 L42.516,43.457 C42.013,46.228 40.623,48.764 38.529,50.697 L31.095,59.767 L28.279,59.767 L20.846,50.697 C18.752,48.764 17.362,46.228 16.858,43.457 L11.987,44.896 C5.757,46.735 2.599,49.816 2.599,54.053 L2.599,63.589 L48.177,63.589 L48.177,65.500 L0.688,65.500 L0.688,54.053 C0.688,48.942 4.408,45.141 11.446,43.063 L20.468,40.399 L20.468,35.576 C18.019,33.301 16.410,30.135 16.163,26.598 L14.641,26.598 C13.061,26.598 11.775,25.313 11.775,23.732 L11.775,20.493 C11.775,19.247 12.574,18.185 13.686,17.791 L13.686,10.780 C13.686,7.387 16.226,4.578 19.505,4.150 C19.926,1.943 21.869,0.270 24.196,0.270 L33.267,0.270 C40.117,0.270 45.689,5.842 45.689,12.691 L45.689,17.791 C46.801,18.185 47.600,19.248 47.600,20.493 L47.600,23.732 C47.600,25.313 46.314,26.599 44.733,26.599 L43.212,26.599 C42.965,30.135 41.355,33.301 38.906,35.576 L38.906,40.399 L47.929,43.063 ZM29.184,57.856 L30.190,57.856 L33.758,53.503 C32.457,53.930 31.086,54.154 29.687,54.154 C28.289,54.154 26.918,53.930 25.616,53.503 L29.184,57.856 ZM14.641,19.537 C14.114,19.537 13.686,19.966 13.686,20.493 L13.686,23.732 C13.686,24.259 14.114,24.687 14.641,24.687 L16.128,24.687 L16.128,19.537 L14.641,19.537 ZM43.246,24.687 L44.733,24.687 C45.260,24.687 45.689,24.259 45.689,23.732 L45.689,20.493 C45.689,19.966 45.260,19.537 44.733,19.537 L43.246,19.537 L43.246,24.687 ZM43.778,17.627 L43.778,12.691 C43.778,6.896 39.063,2.180 33.267,2.180 L24.196,2.180 C22.616,2.180 21.330,3.466 21.330,5.047 L21.330,8.869 L19.419,8.869 L19.419,6.099 C17.241,6.543 15.597,8.473 15.597,10.780 L15.597,17.626 L17.027,17.626 C18.843,17.403 19.337,16.456 20.364,14.174 L20.860,13.075 L21.666,13.325 C22.386,13.548 23.160,13.732 23.942,13.870 C24.370,12.823 25.398,12.084 26.597,12.084 L32.778,12.084 C34.358,12.084 35.644,13.370 35.644,14.950 L35.644,16.234 C37.858,17.157 40.091,17.627 42.291,17.627 L43.778,17.627 ZM25.641,14.950 L25.641,16.861 C25.641,17.388 26.070,17.817 26.597,17.817 L32.778,17.817 C33.305,17.817 33.733,17.388 33.733,16.861 L33.733,14.950 C33.733,14.424 33.305,13.995 32.778,13.995 L26.597,13.995 C26.070,13.995 25.641,14.424 25.641,14.950 ZM41.335,25.643 L41.335,19.511 C39.335,19.402 37.322,18.952 35.328,18.168 C34.852,19.094 33.888,19.728 32.778,19.728 L26.597,19.728 C25.016,19.728 23.730,18.442 23.730,16.861 L23.730,15.771 C23.117,15.667 22.505,15.537 21.915,15.383 C21.069,17.244 20.218,18.830 18.039,19.379 L18.039,25.643 C18.039,29.281 19.716,32.534 22.337,34.672 L22.379,34.672 L22.379,34.706 C24.379,36.322 26.922,37.291 29.687,37.291 C32.453,37.291 34.996,36.322 36.995,34.706 L36.995,34.672 L37.037,34.672 C39.658,32.534 41.335,29.281 41.335,25.643 ZM22.379,37.059 L22.379,41.113 C22.379,45.143 25.658,48.421 29.687,48.421 C33.717,48.421 36.995,45.142 36.995,41.113 L36.995,37.059 C34.885,38.415 32.376,39.202 29.687,39.202 C26.998,39.202 24.490,38.415 22.379,37.059 ZM38.819,42.366 C38.206,46.858 34.346,50.332 29.687,50.332 C25.029,50.332 21.169,46.858 20.556,42.366 L18.706,42.912 C19.105,45.365 20.314,47.616 22.165,49.316 C24.223,51.204 26.894,52.243 29.687,52.243 C32.481,52.243 35.152,51.204 37.209,49.316 C39.061,47.616 40.270,45.365 40.669,42.912 L38.819,42.366 ZM33.951,23.718 L34.415,21.865 L38.237,22.822 L37.772,24.676 L33.951,23.718 ZM29.687,30.845 C28.673,30.845 27.754,31.365 27.230,32.235 L25.593,31.248 C26.454,29.821 28.022,28.934 29.687,28.934 C31.352,28.934 32.921,29.821 33.781,31.248 L32.145,32.235 C31.620,31.365 30.702,30.845 29.687,30.845 ZM21.158,22.793 L24.980,21.836 L25.444,23.689 L21.622,24.646 L21.158,22.793 ZM39.413,8.343 L37.502,8.343 L37.502,6.432 L39.413,6.432 L39.413,8.343 ZM33.680,4.521 L35.591,4.521 L35.591,6.432 L33.680,6.432 L33.680,4.521 ZM51.998,65.500 L50.087,65.500 L50.087,63.589 L51.998,63.589 L51.998,65.500 Z"/>
</svg>