<svg
 xmlns="http://www.w3.org/2000/svg"
 xmlns:xlink="http://www.w3.org/1999/xlink"
 width="55px" height="71px">
<path fill-rule="evenodd"  fill="rgb(228, 32, 114)"
 d="M28.499,70.052 C27.866,70.350 27.134,70.350 26.501,70.052 C10.840,62.658 0.849,46.892 0.850,29.573 L0.850,10.722 C0.844,9.483 1.820,8.462 3.058,8.412 C6.708,8.271 19.145,7.334 25.949,1.345 C26.832,0.554 28.168,0.554 29.051,1.345 C35.855,7.330 48.292,8.268 51.941,8.412 L51.942,8.412 C53.180,8.462 54.156,9.483 54.150,10.722 L54.150,29.573 C54.116,46.882 44.136,62.631 28.499,70.052 ZM51.833,10.728 C47.971,10.574 34.887,9.564 27.521,3.080 C20.103,9.569 6.993,10.576 3.151,10.728 L3.167,29.573 C3.165,45.995 12.637,60.944 27.487,67.956 C42.327,60.929 51.801,45.992 51.833,29.573 L51.833,10.728 ZM28.616,64.681 C27.918,65.053 27.081,65.053 26.383,64.681 C13.507,57.669 5.491,44.183 5.485,29.522 L5.485,15.012 C5.488,13.827 6.383,12.836 7.561,12.712 C12.848,12.138 20.384,10.663 26.252,6.892 C27.009,6.398 27.985,6.396 28.744,6.887 C34.611,10.656 42.150,12.126 47.440,12.706 C48.620,12.830 49.516,13.825 49.515,15.012 L49.515,29.522 C49.521,44.186 41.501,57.678 28.616,64.681 ZM47.198,15.012 C41.651,14.409 33.739,12.849 27.500,8.837 C21.258,12.850 13.346,14.410 7.809,15.012 L7.802,29.522 C7.809,43.331 15.358,56.035 27.484,62.643 L28.063,63.660 L27.509,62.641 C39.647,56.046 47.203,43.336 47.198,29.522 L47.198,15.012 ZM37.953,40.571 L36.886,39.955 C36.154,40.968 35.264,41.857 34.251,42.588 L34.867,43.655 C35.077,44.013 35.079,44.457 34.872,44.818 C34.665,45.178 34.281,45.400 33.865,45.399 C33.449,45.399 33.066,45.175 32.860,44.813 L32.246,43.751 C31.110,44.268 29.896,44.597 28.654,44.724 L28.654,47.099 C28.654,47.739 28.135,48.258 27.495,48.258 C26.855,48.258 26.337,47.739 26.337,47.099 L26.337,44.717 C25.094,44.590 23.881,44.262 22.745,43.744 L22.131,44.807 C21.925,45.168 21.542,45.391 21.126,45.392 C20.710,45.393 20.326,45.171 20.119,44.811 C19.911,44.450 19.913,44.006 20.124,43.648 L20.740,42.580 C19.728,41.849 18.839,40.959 18.109,39.946 L17.042,40.562 C16.683,40.772 16.239,40.774 15.878,40.567 C15.518,40.360 15.296,39.976 15.297,39.560 C15.298,39.144 15.521,38.761 15.883,38.555 L16.945,37.941 C16.428,36.805 16.099,35.591 15.972,34.349 L13.596,34.349 C12.956,34.349 12.437,33.830 12.437,33.190 C12.437,32.550 12.956,32.032 13.596,32.032 L15.978,32.032 C16.104,30.789 16.433,29.576 16.951,28.440 L15.889,27.825 C15.527,27.620 15.304,27.237 15.303,26.821 C15.302,26.405 15.524,26.021 15.884,25.814 C16.245,25.607 16.689,25.608 17.047,25.819 L18.114,26.435 C18.845,25.423 19.733,24.535 20.745,23.805 L20.128,22.738 C19.918,22.379 19.916,21.935 20.123,21.574 C20.330,21.214 20.715,20.992 21.130,20.993 C21.546,20.994 21.930,21.218 22.135,21.579 L22.749,22.641 C23.886,22.124 25.099,21.795 26.341,21.668 L26.341,18.132 L26.346,18.132 C26.346,17.492 26.865,16.973 27.505,16.973 C28.145,16.973 28.663,17.492 28.663,18.132 L28.663,21.673 C29.906,21.799 31.119,22.128 32.255,22.646 L32.869,21.583 C33.075,21.222 33.458,20.998 33.874,20.998 C34.290,20.997 34.674,21.219 34.882,21.579 C35.089,21.940 35.087,22.384 34.876,22.742 L34.260,23.810 C35.272,24.541 36.161,25.431 36.891,26.444 L37.958,25.828 C38.317,25.618 38.761,25.616 39.122,25.823 C39.482,26.030 39.704,26.414 39.703,26.830 C39.702,27.246 39.479,27.629 39.117,27.835 L38.055,28.449 C38.573,29.585 38.902,30.799 39.028,32.041 L41.404,32.041 C42.044,32.041 42.563,32.560 42.563,33.200 C42.563,33.839 42.044,34.358 41.404,34.358 L39.022,34.358 C38.895,35.601 38.567,36.814 38.049,37.950 L39.111,38.565 C39.473,38.770 39.697,39.153 39.697,39.569 C39.698,39.985 39.476,40.369 39.116,40.576 C38.755,40.783 38.311,40.782 37.953,40.571 ZM27.500,23.925 C22.381,23.925 18.230,28.076 18.230,33.195 C18.230,38.314 22.381,42.465 27.500,42.465 C32.619,42.465 36.770,38.314 36.770,33.195 C36.764,28.078 32.617,23.931 27.500,23.925 ZM30.976,33.195 C30.336,33.195 29.817,32.676 29.817,32.036 C29.817,31.396 30.336,30.877 30.976,30.877 C31.616,30.877 32.135,31.396 32.135,32.036 C32.135,32.676 31.616,33.195 30.976,33.195 ZM25.183,38.988 C24.543,38.988 24.024,38.470 24.024,37.830 C24.024,37.190 24.543,36.671 25.183,36.671 C25.823,36.671 26.341,37.190 26.341,37.830 C26.341,38.470 25.823,38.988 25.183,38.988 ZM24.024,30.877 C23.384,30.877 22.865,30.359 22.865,29.719 C22.865,29.079 23.384,28.560 24.024,28.560 C24.664,28.560 25.183,29.079 25.183,29.719 C25.183,30.359 24.664,30.877 24.024,30.877 ZM22.098,16.564 C18.956,17.672 15.724,18.502 12.437,19.046 L12.437,25.084 C12.437,25.724 11.918,26.243 11.278,26.243 C10.638,26.243 10.119,25.724 10.119,25.084 L10.119,19.041 C10.118,17.913 10.932,16.948 12.045,16.760 C15.199,16.240 18.300,15.445 21.315,14.383 C21.914,14.179 22.565,14.493 22.779,15.089 C22.993,15.684 22.690,16.341 22.098,16.564 Z"/>
</svg>