<svg
 xmlns="http://www.w3.org/2000/svg"
 xmlns:xlink="http://www.w3.org/1999/xlink"
 width="70px" height="73px">
<path fill-rule="evenodd"  fill="rgb(33, 94, 171)"
 d="M65.760,40.811 C64.802,41.795 64.295,43.091 64.332,44.461 L64.361,45.539 L63.283,45.538 L63.280,45.538 C62.485,45.538 61.728,45.862 61.147,46.452 C60.557,47.051 60.232,47.843 60.232,48.681 L60.232,54.254 L57.087,54.254 C55.352,54.254 53.941,55.665 53.941,57.400 L53.941,58.448 L52.892,58.448 C51.158,58.448 49.747,59.859 49.747,61.593 L49.747,62.642 L44.690,62.642 L37.350,72.079 L32.131,72.079 L28.790,67.783 L30.445,66.495 L33.156,69.982 L36.325,69.982 L43.129,61.234 L43.129,51.252 L47.323,51.252 L47.323,53.349 L45.226,53.349 L45.226,60.545 L47.755,60.545 C48.179,58.465 49.839,56.828 51.932,56.439 C52.384,54.005 54.524,52.157 57.086,52.157 L58.135,52.157 L58.135,48.682 C58.135,47.289 58.674,45.974 59.653,44.980 C60.386,44.236 61.293,43.743 62.275,43.542 C62.445,41.968 63.131,40.505 64.257,39.348 C64.290,39.315 64.323,39.282 64.356,39.249 L61.676,39.249 L61.676,37.152 L69.481,37.152 L69.481,39.249 C68.062,39.249 66.740,39.804 65.760,40.811 ZM57.482,39.249 L57.482,37.152 L59.579,37.152 L59.579,39.249 L57.482,39.249 ZM41.032,59.640 L38.935,59.640 L38.935,57.543 L41.032,57.543 L41.032,59.640 ZM38.935,53.349 L41.032,53.349 L41.032,55.446 L38.935,55.446 L38.935,53.349 ZM40.508,40.456 L38.411,40.456 L38.411,38.359 L40.508,38.359 L40.508,40.456 ZM35.789,42.553 L33.692,42.553 L33.692,40.456 L35.789,40.456 L35.789,42.553 ZM31.071,38.359 L31.071,40.456 L28.974,40.456 L28.974,38.359 L31.071,38.359 ZM50.608,29.858 C48.723,29.858 46.919,29.501 45.261,28.850 L45.261,32.676 C48.167,38.042 47.422,41.832 46.270,44.078 C46.006,44.593 45.688,45.082 45.325,45.540 L45.948,45.540 C47.683,45.540 49.094,44.129 49.094,42.395 C49.094,39.504 51.446,37.152 54.336,37.152 L55.385,37.152 L55.385,39.249 L54.336,39.249 C52.602,39.249 51.191,40.660 51.191,42.395 C51.191,45.286 48.839,47.637 45.948,47.637 L43.028,47.637 C41.738,48.491 40.247,49.061 38.706,49.238 L38.465,47.155 C40.363,46.936 43.057,45.748 44.404,43.121 C45.746,40.505 45.362,37.163 43.297,33.455 L43.164,33.217 L43.164,27.826 C42.503,27.435 41.874,26.994 41.284,26.508 C39.842,27.480 38.970,29.088 38.970,30.848 L38.970,32.346 L37.563,31.833 C35.374,31.036 34.108,31.036 31.919,31.833 L30.512,32.346 L30.512,30.848 C30.512,28.316 28.708,26.198 26.318,25.711 L26.318,33.217 L26.185,33.455 C24.119,37.163 23.736,40.505 25.078,43.121 C26.425,45.748 29.119,46.936 31.016,47.155 L30.776,49.238 C29.235,49.060 27.744,48.491 26.454,47.637 L23.534,47.637 C20.643,47.637 18.291,45.285 18.291,42.394 C18.291,40.660 16.880,39.249 15.145,39.249 L5.126,39.249 C5.159,39.282 5.192,39.315 5.225,39.349 C6.351,40.505 7.037,41.968 7.207,43.542 C8.189,43.743 9.095,44.236 9.828,44.980 C10.808,45.974 11.347,47.289 11.347,48.682 L11.347,52.157 L12.395,52.157 C14.958,52.157 17.097,54.005 17.549,56.439 C19.642,56.828 21.302,58.465 21.726,60.545 L24.256,60.545 L24.256,53.349 L22.159,53.349 L22.159,51.252 L26.353,51.252 L26.353,61.234 L29.158,64.840 L27.503,66.128 L24.791,62.642 L19.735,62.642 L19.735,61.593 C19.735,59.859 18.323,58.448 16.589,58.448 L15.541,58.448 L15.541,57.400 C15.541,55.665 14.129,54.254 12.395,54.254 L9.249,54.254 L9.249,48.682 C9.249,47.843 8.924,47.051 8.334,46.452 C7.754,45.863 6.996,45.538 6.201,45.538 L6.198,45.538 L5.120,45.539 L5.149,44.461 C5.186,43.091 4.679,41.795 3.722,40.811 C2.741,39.804 1.420,39.249 0.000,39.249 L0.000,37.152 L15.145,37.152 C18.036,37.152 20.388,39.504 20.388,42.395 C20.388,44.129 21.799,45.540 23.533,45.540 L24.156,45.540 C23.793,45.082 23.475,44.593 23.211,44.078 C22.060,41.832 21.314,38.042 24.220,32.676 L24.220,23.508 L25.269,23.508 C28.841,23.508 31.824,26.073 32.476,29.457 C34.069,29.034 35.412,29.034 37.004,29.457 C37.342,27.697 38.313,26.131 39.740,25.036 C37.373,22.429 35.929,18.970 35.929,15.179 C35.929,7.085 42.514,0.500 50.608,0.500 C58.702,0.500 65.288,7.085 65.288,15.179 C65.288,23.273 58.703,29.858 50.608,29.858 ZM50.608,2.597 C43.671,2.597 38.026,8.241 38.026,15.179 C38.026,22.117 43.670,27.761 50.608,27.761 C57.546,27.761 63.190,22.117 63.190,15.179 C63.190,8.241 57.546,2.597 50.608,2.597 ZM56.484,19.572 L58.023,21.111 L56.540,22.593 L55.002,21.055 C54.041,21.775 52.898,22.264 51.657,22.443 L51.657,24.616 L49.560,24.616 L49.560,22.443 C48.318,22.264 47.176,21.775 46.215,21.055 L44.677,22.593 L43.194,21.111 L44.732,19.572 C44.012,18.612 43.523,17.469 43.345,16.228 L41.172,16.228 L41.172,14.131 L43.345,14.131 C43.523,12.889 44.013,11.747 44.733,10.786 L43.194,9.248 L44.677,7.765 L46.215,9.303 C47.176,8.583 48.318,8.094 49.560,7.916 L49.560,5.743 L51.657,5.743 L51.657,7.916 C52.898,8.094 54.041,8.583 55.002,9.303 L56.540,7.765 L58.022,9.248 L56.484,10.786 C57.204,11.747 57.693,12.889 57.872,14.131 L60.045,14.131 L60.045,16.228 L57.872,16.228 C57.694,17.469 57.204,18.612 56.484,19.572 ZM50.608,9.937 C47.718,9.937 45.366,12.288 45.366,15.179 C45.366,18.070 47.718,20.422 50.608,20.422 C53.499,20.422 55.851,18.070 55.851,15.179 C55.851,12.288 53.499,9.937 50.608,9.937 ZM49.560,14.131 L51.657,14.131 L51.657,16.228 L49.560,16.228 L49.560,14.131 Z"/>
</svg>