<svg
 xmlns="http://www.w3.org/2000/svg"
 xmlns:xlink="http://www.w3.org/1999/xlink"
 width="68px" height="68px">
<path fill-rule="evenodd"  fill="rgb(33, 94, 171)"
 d="M59.887,55.586 L58.376,54.326 C63.101,48.661 65.704,41.473 65.704,34.086 C65.704,25.640 62.415,17.700 56.443,11.729 C50.471,5.757 42.531,2.468 34.086,2.468 C25.640,2.468 17.700,5.757 11.729,11.729 C5.757,17.700 2.468,25.640 2.468,34.086 C2.468,42.531 5.757,50.471 11.729,56.443 C17.700,62.415 25.640,65.704 34.086,65.704 C41.474,65.704 48.662,63.101 54.326,58.375 L55.587,59.886 C49.570,64.907 41.934,67.672 34.086,67.672 C25.115,67.672 16.681,64.178 10.337,57.835 C3.994,51.491 0.500,43.057 0.500,34.086 C0.500,25.115 3.994,16.681 10.337,10.337 C16.681,3.994 25.115,0.500 34.086,0.500 C43.057,0.500 51.491,3.994 57.835,10.337 C64.178,16.681 67.672,25.115 67.672,34.086 C67.672,41.933 64.907,49.568 59.887,55.586 ZM41.428,17.525 C39.800,17.525 38.476,16.201 38.476,14.574 C38.476,12.946 39.800,11.622 41.428,11.622 C43.055,11.622 44.379,12.946 44.379,14.574 C44.379,16.201 43.055,17.525 41.428,17.525 ZM41.428,13.589 C40.885,13.589 40.444,14.031 40.444,14.574 C40.444,15.116 40.885,15.557 41.428,15.557 C41.970,15.557 42.412,15.116 42.412,14.574 C42.412,14.031 41.970,13.589 41.428,13.589 ZM44.708,45.733 C46.878,45.733 48.643,47.499 48.643,49.669 C48.643,51.839 46.878,53.605 44.708,53.605 C42.537,53.605 40.772,51.839 40.772,49.669 C40.772,47.499 42.537,45.733 44.708,45.733 ZM44.708,51.637 C45.793,51.637 46.676,50.754 46.676,49.669 C46.676,48.584 45.793,47.701 44.708,47.701 C43.623,47.701 42.740,48.584 42.740,49.669 C42.740,50.754 43.623,51.637 44.708,51.637 ZM36.508,31.958 L36.508,29.990 L36.508,29.989 L38.532,29.989 C38.632,29.087 38.868,28.227 39.220,27.426 L37.466,26.414 L38.450,24.710 L40.205,25.723 C40.733,25.009 41.366,24.376 42.081,23.848 L41.067,22.092 L42.772,21.108 L43.784,22.862 C44.584,22.510 45.445,22.274 46.347,22.174 L46.347,20.150 L48.315,20.150 L48.315,22.174 C49.217,22.274 50.078,22.510 50.879,22.862 L51.891,21.108 L53.595,22.092 L52.582,23.848 C53.297,24.376 53.929,25.009 54.457,25.723 L56.213,24.710 L57.197,26.414 L55.443,27.426 C55.794,28.227 56.031,29.087 56.131,29.990 L58.155,29.990 L58.155,31.958 L56.131,31.958 C56.031,32.860 55.794,33.721 55.443,34.521 L57.197,35.533 L56.213,37.238 L54.457,36.224 C53.929,36.939 53.297,37.571 52.582,38.099 L53.595,39.855 L51.891,40.839 L50.879,39.085 C50.078,39.437 49.217,39.673 48.315,39.773 L48.315,41.797 L46.347,41.797 L46.347,39.773 C45.445,39.673 44.584,39.437 43.784,39.085 L42.772,40.839 L41.067,39.855 L42.081,38.099 C41.366,37.571 40.733,36.939 40.205,36.224 L38.450,37.238 L37.466,35.533 L39.220,34.521 C38.868,33.721 38.632,32.860 38.532,31.958 L36.508,31.958 ZM47.332,37.861 C51.129,37.861 54.219,34.772 54.219,30.974 C54.219,27.176 51.129,24.086 47.332,24.086 C43.534,24.086 40.444,27.176 40.444,30.974 C40.444,34.772 43.534,37.861 47.332,37.861 ZM49.300,29.006 L47.332,29.006 L47.332,27.038 L49.300,27.038 L49.300,29.006 ZM51.267,32.941 L49.300,32.941 L49.300,30.974 L51.267,30.974 L51.267,32.941 ZM55.052,13.120 C60.652,18.719 63.736,26.165 63.736,34.086 C63.736,42.006 60.652,49.452 55.052,55.052 C49.452,60.652 42.006,63.736 34.086,63.736 C26.166,63.736 18.720,60.652 13.120,55.052 C7.520,49.452 4.436,42.006 4.436,34.086 C4.436,26.547 7.269,19.361 12.414,13.853 L13.852,15.196 C9.049,20.339 6.404,27.047 6.404,34.086 C6.404,41.481 9.283,48.432 14.511,53.661 C19.739,58.889 26.691,61.768 34.086,61.768 C41.481,61.768 48.432,58.889 53.661,53.661 C58.889,48.432 61.768,41.481 61.768,34.086 C61.768,26.691 58.889,19.739 53.661,14.511 C48.432,9.283 41.481,6.404 34.086,6.404 C27.047,6.404 20.339,9.049 15.197,13.851 L13.853,12.413 C19.361,7.269 26.547,4.436 34.086,4.436 C42.006,4.436 49.452,7.520 55.052,13.120 ZM16.474,32.508 C15.769,32.328 15.127,31.954 14.610,31.412 C14.213,30.996 13.920,30.510 13.738,29.985 L11.437,31.029 L10.624,29.237 L13.553,27.908 C14.025,20.284 20.012,14.319 27.553,13.955 L28.817,11.051 L30.622,11.837 L29.605,14.172 C30.154,14.366 30.654,14.678 31.073,15.095 C31.576,15.594 31.924,16.211 32.095,16.888 L34.185,16.888 L34.185,18.856 L32.093,18.856 C31.772,20.098 30.858,21.104 29.673,21.554 L30.698,23.908 L28.893,24.694 L27.650,21.838 C24.355,22.139 21.725,24.769 21.424,28.064 L24.280,29.307 L23.494,31.112 L21.139,30.086 C20.690,31.272 19.684,32.186 18.442,32.507 L18.442,34.599 L16.474,34.599 L16.474,32.508 ZM22.764,21.776 C24.279,20.566 26.196,19.840 28.282,19.840 C29.367,19.840 30.249,18.957 30.249,17.872 C30.249,17.343 30.049,16.852 29.685,16.490 C29.305,16.113 28.787,15.905 28.225,15.905 L28.211,15.905 C25.063,15.922 22.199,17.065 19.988,18.963 L22.764,21.776 ZM19.426,28.696 C19.426,26.606 20.155,24.683 21.371,23.167 L18.599,20.357 C16.719,22.557 15.563,25.416 15.493,28.577 L15.492,28.602 C15.467,29.145 15.659,29.660 16.034,30.054 C16.409,30.447 16.915,30.664 17.458,30.664 C18.543,30.664 19.426,29.781 19.426,28.696 ZM27.221,35.432 C27.221,33.804 28.545,32.480 30.173,32.480 C31.801,32.480 33.125,33.804 33.125,35.432 C33.125,37.060 31.801,38.384 30.173,38.384 C28.545,38.384 27.221,37.060 27.221,35.432 ZM31.157,35.432 C31.157,34.890 30.716,34.448 30.173,34.448 C29.631,34.448 29.189,34.890 29.189,35.432 C29.189,35.975 29.631,36.416 30.173,36.416 C30.716,36.416 31.157,35.975 31.157,35.432 ZM16.999,47.432 L16.701,45.487 L18.768,45.170 C18.804,44.809 18.889,44.449 19.028,44.104 L17.342,42.865 L18.506,41.279 L20.193,42.518 C20.481,42.282 20.799,42.093 21.133,41.951 L20.817,39.884 L22.762,39.586 L23.078,41.653 C23.440,41.689 23.800,41.774 24.145,41.913 L25.384,40.226 L26.970,41.391 L25.805,42.977 L27.391,44.142 L28.556,42.556 L30.142,43.721 L28.978,45.307 L30.563,46.472 L31.728,44.886 L33.315,46.051 L32.076,47.738 C32.308,48.022 32.499,48.338 32.643,48.678 L34.710,48.361 L35.008,50.306 L32.941,50.623 C32.905,50.989 32.818,51.348 32.681,51.689 L34.368,52.928 L33.203,54.514 L31.515,53.275 C31.227,53.510 30.910,53.701 30.576,53.843 L30.892,55.910 L28.947,56.207 L28.630,54.139 C28.269,54.103 27.910,54.018 27.564,53.880 L26.325,55.567 L24.739,54.402 L25.904,52.816 L24.318,51.651 L23.153,53.237 L21.567,52.072 L22.731,50.486 L21.145,49.321 L19.980,50.907 L18.394,49.742 L19.633,48.056 C19.398,47.767 19.208,47.450 19.066,47.116 L16.999,47.432 ZM21.518,47.153 L27.862,51.813 C28.736,52.455 29.970,52.266 30.613,51.391 C30.922,50.970 31.048,50.451 30.968,49.929 C30.889,49.407 30.613,48.950 30.192,48.640 L23.847,43.981 C22.973,43.338 21.739,43.527 21.096,44.402 C20.454,45.276 20.643,46.510 21.518,47.153 ZM58.523,57.165 L57.116,58.541 L55.741,57.134 L57.148,55.758 L58.523,57.165 Z"/>
</svg>